<mxfile host="app.diagrams.net" modified="2023-01-15T13:15:12.641Z" agent="5.0 (Macintosh; Intel Mac OS X 10_15_7) AppleWebKit/537.36 (KHTML, like Gecko) Chrome/108.0.0.0 Safari/537.36" etag="MyrZGaKPEO2u-kQgUpHy" version="20.8.4" type="github">
  <diagram id="R2lEEEUBdFMjLlhIrx00" name="Page-1">
    <mxGraphModel dx="1434" dy="844" grid="1" gridSize="10" guides="1" tooltips="1" connect="1" arrows="1" fold="1" page="1" pageScale="1" pageWidth="850" pageHeight="1100" math="0" shadow="0" extFonts="Permanent Marker^https://fonts.googleapis.com/css?family=Permanent+Marker">
      <root>
        <mxCell id="0" />
        <mxCell id="1" parent="0" />
        <mxCell id="zaY957FdECM3aW0_qBol-1" value="resource_counter" style="swimlane;fontStyle=0;childLayout=stackLayout;horizontal=1;startSize=26;horizontalStack=0;resizeParent=1;resizeParentMax=0;resizeLast=0;collapsible=1;marginBottom=0;align=center;fontSize=14;sketch=1;hachureGap=4;jiggle=2;curveFitting=1;fontFamily=Architects Daughter;fontSource=https%3A%2F%2Ffonts.googleapis.com%2Fcss%3Ffamily%3DArchitects%2BDaughter;fillColor=#dae8fc;strokeColor=#6c8ebf;movable=1;resizable=1;rotatable=1;deletable=1;editable=1;connectable=1;" vertex="1" parent="1">
          <mxGeometry x="830" y="290" width="280" height="56" as="geometry">
            <mxRectangle x="90" y="420" width="170" height="30" as="alternateBounds" />
          </mxGeometry>
        </mxCell>
        <mxCell id="zaY957FdECM3aW0_qBol-46" value="csd_resource_interaction&#xa;资源互动表" style="swimlane;fontStyle=1;childLayout=stackLayout;horizontal=1;startSize=80;horizontalStack=0;resizeParent=1;resizeParentMax=0;resizeLast=0;collapsible=1;marginBottom=0;align=center;fontSize=18;sketch=1;hachureGap=4;jiggle=2;curveFitting=1;fontFamily=Helvetica;fillColor=#dae8fc;strokeColor=#6c8ebf;movable=1;resizable=1;rotatable=1;deletable=1;editable=1;connectable=1;fontColor=#9933FF;" vertex="1" parent="1">
          <mxGeometry x="50" y="90" width="550" height="630" as="geometry">
            <mxRectangle x="50" y="90" width="280" height="70" as="alternateBounds" />
          </mxGeometry>
        </mxCell>
        <mxCell id="zaY957FdECM3aW0_qBol-61" value="id: bigint 主键ID，无实际含义" style="text;strokeColor=#6c8ebf;fillColor=#dae8fc;spacingLeft=4;spacingRight=4;overflow=hidden;rotatable=0;points=[[0,0.5],[1,0.5]];portConstraint=eastwest;fontSize=14;sketch=1;hachureGap=4;jiggle=2;curveFitting=1;fontFamily=Helvetica;align=left;verticalAlign=middle;" vertex="1" parent="zaY957FdECM3aW0_qBol-46">
          <mxGeometry y="80" width="550" height="50" as="geometry" />
        </mxCell>
        <mxCell id="zaY957FdECM3aW0_qBol-4" value="account_id: varchar(64) 互动用户ID" style="text;strokeColor=#6c8ebf;fillColor=#dae8fc;spacingLeft=4;spacingRight=4;overflow=hidden;rotatable=0;points=[[0,0.5],[1,0.5]];portConstraint=eastwest;fontSize=14;sketch=1;hachureGap=4;jiggle=2;curveFitting=1;fontFamily=Helvetica;align=left;verticalAlign=middle;" vertex="1" parent="zaY957FdECM3aW0_qBol-46">
          <mxGeometry y="130" width="550" height="50" as="geometry" />
        </mxCell>
        <mxCell id="zaY957FdECM3aW0_qBol-48" value="resource_type: varchar(32) 资源类型" style="text;strokeColor=#6c8ebf;fillColor=#dae8fc;spacingLeft=4;spacingRight=4;overflow=hidden;rotatable=0;points=[[0,0.5],[1,0.5]];portConstraint=eastwest;fontSize=14;sketch=1;hachureGap=4;jiggle=2;curveFitting=1;fontFamily=Helvetica;align=left;verticalAlign=middle;" vertex="1" parent="zaY957FdECM3aW0_qBol-46">
          <mxGeometry y="180" width="550" height="50" as="geometry" />
        </mxCell>
        <mxCell id="zaY957FdECM3aW0_qBol-49" value="resource_id: varchar(128) 资源ID" style="text;strokeColor=#6c8ebf;fillColor=#dae8fc;spacingLeft=4;spacingRight=4;overflow=hidden;rotatable=0;points=[[0,0.5],[1,0.5]];portConstraint=eastwest;fontSize=14;sketch=1;hachureGap=4;jiggle=2;curveFitting=1;fontFamily=Helvetica;align=left;verticalAlign=middle;" vertex="1" parent="zaY957FdECM3aW0_qBol-46">
          <mxGeometry y="230" width="550" height="50" as="geometry" />
        </mxCell>
        <mxCell id="zaY957FdECM3aW0_qBol-62" value="resource_owner_id: varchar(64) 资源所属用户ID" style="text;strokeColor=#6c8ebf;fillColor=#dae8fc;spacingLeft=4;spacingRight=4;overflow=hidden;rotatable=0;points=[[0,0.5],[1,0.5]];portConstraint=eastwest;fontSize=14;sketch=1;hachureGap=4;jiggle=2;curveFitting=1;fontFamily=Helvetica;align=left;verticalAlign=middle;" vertex="1" parent="zaY957FdECM3aW0_qBol-46">
          <mxGeometry y="280" width="550" height="50" as="geometry" />
        </mxCell>
        <mxCell id="zaY957FdECM3aW0_qBol-50" value="action: varchar(32) 互动行为，点赞(like)，收藏(collect)，打赏(reward)，浏览(view)等" style="text;strokeColor=#6c8ebf;fillColor=#dae8fc;spacingLeft=4;spacingRight=4;overflow=hidden;rotatable=0;points=[[0,0.5],[1,0.5]];portConstraint=eastwest;fontSize=14;sketch=1;hachureGap=4;jiggle=2;curveFitting=1;fontFamily=Helvetica;align=left;verticalAlign=middle;" vertex="1" parent="zaY957FdECM3aW0_qBol-46">
          <mxGeometry y="330" width="550" height="50" as="geometry" />
        </mxCell>
        <mxCell id="zaY957FdECM3aW0_qBol-51" value="interact_info: text 互动明细，json结构表示" style="text;strokeColor=#6c8ebf;fillColor=#dae8fc;spacingLeft=4;spacingRight=4;overflow=hidden;rotatable=0;points=[[0,0.5],[1,0.5]];portConstraint=eastwest;fontSize=14;sketch=1;hachureGap=4;jiggle=2;curveFitting=1;fontFamily=Helvetica;align=left;verticalAlign=middle;" vertex="1" parent="zaY957FdECM3aW0_qBol-46">
          <mxGeometry y="380" width="550" height="50" as="geometry" />
        </mxCell>
        <mxCell id="zaY957FdECM3aW0_qBol-56" value="status: tinyint 状态 1-正常状态 2-取消状态" style="text;strokeColor=#6c8ebf;fillColor=#dae8fc;spacingLeft=4;spacingRight=4;overflow=hidden;rotatable=0;points=[[0,0.5],[1,0.5]];portConstraint=eastwest;fontSize=14;sketch=1;hachureGap=4;jiggle=2;curveFitting=1;fontFamily=Helvetica;align=left;verticalAlign=middle;" vertex="1" parent="zaY957FdECM3aW0_qBol-46">
          <mxGeometry y="430" width="550" height="50" as="geometry" />
        </mxCell>
        <mxCell id="zaY957FdECM3aW0_qBol-57" value="cancel_time: bigint 取消互动(如取消点赞)的操作时间" style="text;strokeColor=#6c8ebf;fillColor=#dae8fc;spacingLeft=4;spacingRight=4;overflow=hidden;rotatable=0;points=[[0,0.5],[1,0.5]];portConstraint=eastwest;fontSize=14;sketch=1;hachureGap=4;jiggle=2;curveFitting=1;fontFamily=Helvetica;align=left;verticalAlign=middle;" vertex="1" parent="zaY957FdECM3aW0_qBol-46">
          <mxGeometry y="480" width="550" height="50" as="geometry" />
        </mxCell>
        <mxCell id="zaY957FdECM3aW0_qBol-58" value="create_time: bigint 创建时间" style="text;strokeColor=#6c8ebf;fillColor=#dae8fc;spacingLeft=4;spacingRight=4;overflow=hidden;rotatable=0;points=[[0,0.5],[1,0.5]];portConstraint=eastwest;fontSize=14;sketch=1;hachureGap=4;jiggle=2;curveFitting=1;fontFamily=Helvetica;align=left;verticalAlign=middle;" vertex="1" parent="zaY957FdECM3aW0_qBol-46">
          <mxGeometry y="530" width="550" height="50" as="geometry" />
        </mxCell>
        <mxCell id="zaY957FdECM3aW0_qBol-59" value="update_time: bigint 更新时间" style="text;strokeColor=#6c8ebf;fillColor=#dae8fc;spacingLeft=4;spacingRight=4;overflow=hidden;rotatable=0;points=[[0,0.5],[1,0.5]];portConstraint=eastwest;fontSize=14;sketch=1;hachureGap=4;jiggle=2;curveFitting=1;fontFamily=Helvetica;align=left;verticalAlign=middle;" vertex="1" parent="zaY957FdECM3aW0_qBol-46">
          <mxGeometry y="580" width="550" height="50" as="geometry" />
        </mxCell>
      </root>
    </mxGraphModel>
  </diagram>
</mxfile>
